# xmcd
#
# Track frame offsets: 
#        150
#        20726
#        37447
#        58012
#        78569
#        95295
#        115867
#        136431
#        153147
#        167561
#
# Disc length: 2424 seconds
#
# Revision: 0
# Processed by: cddbd v1.5.2PL0 Copyright (c) Steve Scherf et al.
# Submitted via: ExactAudioCopy v1.3
#
DISCID=8109760a
DTITLE=氷川きよし - ちょいときまぐれ渡り鳥／伝言～メッセージ～
DYEAR=2014
DGENRE=JPop
TTITLE0=ちょいときまぐれ渡り鳥
TTITLE1=伝言～メッセージ～
TTITLE2=ちょいときまぐれ渡り鳥(セリフ入り)
TTITLE3=ちょいときまぐれ渡り鳥(オリジナル・カラオケ)
TTITLE4=伝言～メッセージ～(オリジナル・カラオケ)
TTITLE5=ちょいときまぐれ渡り鳥(半音下げオリジナル・カラオケ)
TTITLE6=ちょいときまぐれ渡り鳥(半音下げオリジナル・カラオケ ガイドメロ入り)
TTITLE7=伝言～メッセージ～(半音下げオリジナル・カラオケ)
TTITLE8=ちょいときまぐれ渡り鳥(2コーラスオリジナル・カラオケ)
TTITLE9=ちょいときまぐれ渡り鳥(半音下げ2コーラスオリジナル・カラオケ)
EXTD=
EXTT0=
EXTT1=
EXTT2=
EXTT3=
EXTT4=
EXTT5=
EXTT6=
EXTT7=
EXTT8=
EXTT9=
PLAYORDER=
